<svg width="23" height="23" viewBox="0 0 23 23" fill="none" xmlns="http://www.w3.org/2000/svg">
<g id="apple">
<path id="Vector" d="M17.6657 18.2812C16.8876 19.4437 16.0626 20.5781 14.8063 20.5969C13.5501 20.625 13.147 19.8562 11.722 19.8562C10.2876 19.8562 9.84696 20.5781 8.65634 20.625C7.42821 20.6719 6.50009 19.3875 5.71259 18.2531C4.10946 15.9375 2.88134 11.6719 4.53134 8.80312C5.34696 7.37813 6.80946 6.47812 8.39384 6.45C9.59384 6.43125 10.7376 7.26562 11.4782 7.26562C12.2095 7.26562 13.597 6.2625 15.0501 6.4125C15.6595 6.44062 17.3657 6.65625 18.4626 8.26875C18.3782 8.325 16.4282 9.46875 16.447 11.8406C16.4751 14.6719 18.9313 15.6187 18.9595 15.6281C18.9313 15.6937 18.5657 16.9781 17.6657 18.2812ZM12.3126 3.28125C12.997 2.50312 14.1313 1.9125 15.0688 1.875C15.1907 2.97187 14.7501 4.07812 14.0938 4.86562C13.447 5.6625 12.3782 6.28125 11.3282 6.19687C11.1876 5.11875 11.7126 3.99375 12.3126 3.28125Z" fill="black"/>
</g>
</svg>
