<svg width="132" height="45" viewBox="0 0 132 45" fill="none" xmlns="http://www.w3.org/2000/svg">
<path d="M1.15834 0.577148H17.9007C27.9819 0.577148 31.6485 4.54948 31.6485 11.1462C31.6485 16.8284 28.8369 20.3116 24.0091 21.592V21.7153C29.6919 22.2043 33.7841 24.952 33.7841 32.161C33.7841 39.6127 28.8966 44.5035 17.4076 44.5035H1.15436V0.577148H1.15834ZM15.272 18.6018C19.6107 18.6018 22.7246 17.0749 22.7246 12.9196C22.7246 9.01092 20.4021 8.15601 16.7991 8.15601H10.6271V18.6018H15.272ZM16.2503 36.9286C21.1378 36.9286 24.0091 35.7079 24.0091 31.1232C24.0091 26.4192 20.2192 25.9302 17.0417 25.9302H10.6271V36.9286H16.2503Z" fill="#4D3C9A"/>
<path d="M48.3908 15.0588V44.5075H39.2879V15.0588H48.3908Z" fill="#4D3C9A"/>
<path d="M63.8509 31.6287C64.0934 34.8654 65.9268 37.4938 71.6096 37.4938C74.6638 37.4938 78.6366 36.5792 80.6529 35.6607H80.9591L80.1637 42.8101C78.2708 43.665 74.5405 44.7665 70.1422 44.7665C58.6572 44.7665 54.2548 38.289 54.2548 29.3702C54.2548 18.7415 60.8523 13.8506 68.9809 13.8506C78.4537 13.8506 81.997 19.656 81.997 27.5371C81.997 28.6385 81.9374 30.5312 81.8737 31.6287H63.8509ZM63.7872 26.0102H73.3196C73.3793 22.344 72.1584 20.328 68.8577 20.328C65.8671 20.328 63.8509 22.2843 63.7872 26.0102Z" fill="#4D3C9A"/>
<path d="M115.507 25.8965V44.7125H106.404V27.1173C106.404 23.634 105.302 21.9838 102.065 21.9838C98.0329 21.9838 96.5654 24.4889 96.5654 27.1769V44.7125H87.4625V15.2639H95.7104L96.0166 18.5642L96.1996 18.6238C97.5437 16.3653 100.415 14.5322 104.877 14.5322C112.449 14.5322 115.507 18.8704 115.507 25.8965Z" fill="#4D3C9A"/>
<path d="M131.12 15.0588V44.5075H122.017V15.0588H131.12Z" fill="#4D3C9A"/>
<path d="M42.8341 0C46.3774 0 48.2704 1.70982 48.2704 4.8869C48.2704 8.06398 46.3774 9.7738 42.8937 9.7738C39.6566 9.7738 37.6404 8.00035 37.6404 4.94654C37.6404 1.70982 39.7163 0 42.8341 0Z" fill="#4D3C9A"/>
<path d="M125.564 0C129.107 0 131 1.70982 131 4.8869C131 8.06398 129.107 9.7738 125.623 9.7738C122.386 9.7738 120.37 8.00035 120.37 4.94654C120.37 1.70982 122.446 0 125.564 0Z" fill="#4D3C9A"/>
</svg>
