<svg width="96" height="33" viewBox="0 0 96 33" fill="none" xmlns="http://www.w3.org/2000/svg">
<path d="M0.00291715 0.247864H12.2721C19.6599 0.247864 22.3469 3.16091 22.3469 7.9985C22.3469 12.1654 20.2864 14.7198 16.7485 15.6587V15.7491C20.913 16.1078 23.9118 18.1227 23.9118 23.4094C23.9118 28.8739 20.3302 32.4605 11.9108 32.4605H0V0.247864H0.00291715ZM10.3458 13.4659C13.5253 13.4659 15.8072 12.3462 15.8072 9.29902C15.8072 6.43263 14.1052 5.80569 11.4649 5.80569H6.94187V13.4659H10.3458ZM11.0627 26.9056C14.6444 26.9056 16.7485 26.0104 16.7485 22.6483C16.7485 19.1987 13.9712 18.8401 11.6426 18.8401H6.94187V26.9056H11.0627Z" fill="#FBFAFD"/>
<path d="M34.616 10.8678V32.4635H27.9452V10.8678H34.616Z" fill="#FBFAFD"/>
<path d="M45.7196 23.3656C45.8974 25.7392 47.2409 27.6667 51.4054 27.6667C53.6436 27.6667 56.555 26.996 58.0325 26.3224H58.2569L57.674 31.5653C56.2868 32.1923 53.5532 33 50.33 33C41.9135 33 38.6874 28.2499 38.6874 21.7094C38.6874 13.915 43.5222 10.3284 49.479 10.3284C56.4209 10.3284 59.0175 14.5857 59.0175 20.3651C59.0175 21.1728 58.9738 22.5608 58.9272 23.3656H45.7196ZM45.673 19.2454H52.6585C52.7022 16.5569 51.8076 15.0785 49.3887 15.0785C47.1971 15.0785 45.7196 16.5131 45.673 19.2454Z" fill="#FBFAFD"/>
<path d="M83.5559 18.6622V32.4605H76.8851V19.5574C76.8851 17.003 76.0778 15.7929 73.7056 15.7929C70.7505 15.7929 69.6751 17.6299 69.6751 19.6011V32.4605H63.0043V10.8649H69.0485L69.2729 13.2851L69.407 13.3289C70.392 11.6726 72.4962 10.3284 75.766 10.3284C81.3148 10.3284 83.5559 13.5097 83.5559 18.6622Z" fill="#FBFAFD"/>
<path d="M95.2422 10.8678V32.4635H88.5714V10.8678H95.2422Z" fill="#FBFAFD"/>
<path d="M31.3899 0C33.9866 0 35.3738 1.25387 35.3738 3.58372C35.3738 5.91358 33.9866 7.16745 31.4337 7.16745C29.0614 7.16745 27.5839 5.86692 27.5839 3.62746C27.5839 1.25387 29.1051 0 31.3899 0Z" fill="#FBFAFD"/>
<path d="M92.0162 0C94.6128 0 96 1.25387 96 3.58372C96 5.91358 94.6128 7.16745 92.0599 7.16745C89.6876 7.16745 88.2101 5.86692 88.2101 3.62746C88.2101 1.25387 89.7313 0 92.0162 0Z" fill="#FBFAFD"/>
</svg>
