<svg width="21" height="19" viewBox="0 0 21 19" fill="none" xmlns="http://www.w3.org/2000/svg">
<g id="Group 71">
<g id="Group 73">
<rect id="Rectangle 51" x="9.50171" y="1.67647" width="6.61537" height="6.45448" rx="3.22724" stroke="#B8B3FF" stroke-width="2"/>
<path id="Rectangle 52" d="M6.01453 17.2488C6.01453 14.4295 8.30009 12.1439 11.1195 12.1439H14.7044C17.5238 12.1439 19.8094 14.4295 19.8094 17.2488C19.8094 17.2901 19.776 17.3235 19.7347 17.3235H6.08918C6.04795 17.3235 6.01453 17.2901 6.01453 17.2488Z" stroke="#B8B3FF" stroke-width="2"/>
</g>
<g id="Group 72">
<rect id="Rectangle 51_2" x="4.4873" y="1.67647" width="6.61537" height="6.45448" rx="3.22724" fill="#FBFAFD" stroke="#FBFAFD" stroke-width="2"/>
<path id="Rectangle 52_2" d="M1 17.2489C1 14.4295 3.28556 12.1439 6.10494 12.1439H9.68991C12.5093 12.1439 14.7949 14.4295 14.7949 17.2489C14.7949 17.2901 14.7614 17.3235 14.7202 17.3235H1.07465C1.03342 17.3235 1 17.2901 1 17.2489Z" fill="#FBFAFD" stroke="#FBFAFD" stroke-width="2"/>
</g>
</g>
</svg>
