<svg width="40" height="40" viewBox="0 0 40 40" fill="none" xmlns="http://www.w3.org/2000/svg">
<path d="M20.0001 6.43872C20.0001 6.43872 20.0001 11.4406 20.0001 16.3835M20.0001 16.3835C17.2879 16.3835 17.2879 19.9997 16.3838 21.8078M20.0001 16.3835C22.7123 16.3835 22.7123 19.9997 23.6163 21.8078" stroke="#4D3C9A" stroke-width="2.53125" stroke-linecap="round"/>
<path d="M16.384 29.0406C18.9393 24.7817 15.0351 23.6215 15.3682 14.5334C15.4087 13.4278 15.004 12.2482 13.9598 11.8827C9.55153 10.3397 4.69608 16.9311 4.95631 26.0941C5.03781 28.9639 7.43781 31.2252 10.3084 31.2744C12.9183 31.3191 15.2859 30.8707 16.384 29.0406Z" stroke="#4D3C9A" stroke-width="2.53125" stroke-linecap="round"/>
<path d="M23.6158 29.0406C21.0604 24.7817 24.9647 23.6215 24.6316 14.5334C24.5911 13.4278 24.9958 12.2482 26.04 11.8827C30.4482 10.3397 35.3037 16.9311 35.0434 26.0941C34.9619 28.9639 32.5619 31.2252 29.6913 31.2744C27.0815 31.3192 24.7138 30.8707 23.6158 29.0406Z" stroke="#4D3C9A" stroke-width="2.53125" stroke-linecap="round"/>
</svg>
