<svg width="36" height="18" viewBox="0 0 36 18" fill="none" xmlns="http://www.w3.org/2000/svg">
<path d="M2.05493 10.4708H4.48487L6.33742 7.90821C6.47214 7.72185 6.74972 7.72185 6.88444 7.90821L8.96712 10.7891C9.12021 11.0009 9.44552 10.9658 9.54999 10.7263L13.3916 1.91839C13.5253 1.61192 13.9754 1.66551 14.0333 1.9948L16.5066 16.0429C16.564 16.3689 17.0075 16.426 17.1457 16.1253L20.5833 8.64303C20.6911 8.40823 21.0121 8.37679 21.1635 8.5862L23.4199 11.7074C23.5801 11.929 23.9237 11.878 24.0126 11.6193L26.4373 4.56242C26.537 4.27224 26.9408 4.25488 27.065 4.53544L29.6932 10.4708H33.9452" stroke="#4D3C9A" stroke-width="2.53125" stroke-linecap="round"/>
</svg>
