<svg width="44" height="41" viewBox="0 0 44 41" fill="none" xmlns="http://www.w3.org/2000/svg">
<path d="M23.936 31.9622V31.9622C24.8598 31.9622 25.3216 31.9622 25.71 31.9171C28.8205 31.5555 31.2739 29.1021 31.6355 25.9917C31.6806 25.6033 31.6806 25.1414 31.6806 24.2176V13.9515C31.6806 11.2229 31.6806 9.85856 31.2919 8.76329C30.6119 6.84705 29.1043 5.33946 27.1881 4.65943C26.0928 4.27075 24.7285 4.27075 21.9999 4.27075V4.27075C19.2712 4.27075 17.9069 4.27075 16.8116 4.65943C14.8954 5.33946 13.3878 6.84705 12.7078 8.76329C12.3191 9.85856 12.3191 11.2229 12.3191 13.9515V24.2176C12.3191 25.1414 12.3191 25.6033 12.3642 25.9917C12.7258 29.1021 15.1792 31.5555 18.2897 31.9171C18.6781 31.9622 19.1399 31.9622 20.0637 31.9622V31.9622M23.936 31.9622V32.8853C23.936 33.9049 23.0692 34.7314 21.9999 34.7314C20.9305 34.7314 20.0637 33.9049 20.0637 32.8853V31.9622M23.936 31.9622H20.0637" stroke="#4D3C9A" stroke-width="2.53125"/>
<path d="M12.3191 13.5012H16.1914" stroke="#4D3C9A" stroke-width="2.53125" stroke-linecap="round"/>
<path d="M12.3191 17.1934H31.6806" stroke="#4D3C9A" stroke-width="2.53125" stroke-linecap="round"/>
<path d="M12.3191 20.8857H16.1914" stroke="#4D3C9A" stroke-width="2.53125" stroke-linecap="round"/>
<path d="M13.2874 24.5779H16.1916" stroke="#4D3C9A" stroke-width="2.53125" stroke-linecap="round"/>
<path d="M22 34.7314C22 37.5006 22.9681 39.3467 24.9042 39.3467" stroke="#4D3C9A" stroke-width="2.53125" stroke-linecap="round"/>
</svg>
