<svg width="21" height="23" viewBox="0 0 21 23" fill="none" xmlns="http://www.w3.org/2000/svg">
<g id="Home">
<path id="Rectangle 44" d="M2.66528 13.1131C2.66528 12.0085 3.56072 11.1131 4.66529 11.1131L10.4999 11.1131L16.3345 11.1131C17.4391 11.1131 18.3345 12.0085 18.3345 13.1131V19.5C18.3345 20.6046 17.4391 21.5 16.3345 21.5H4.66528C3.56071 21.5 2.66528 20.6046 2.66528 19.5V13.1131Z" stroke="#FBFAFD" stroke-width="2"/>
<path id="Rectangle 45" d="M1 11.0305C1 10.8351 1.07855 10.648 1.21797 10.5111L9.09908 2.77611C9.87699 2.01262 11.123 2.01262 11.9009 2.77611L19.782 10.5111C19.9215 10.648 20 10.8351 20 11.0305C20 11.4323 19.6742 11.7581 19.2723 11.7581H1.72768C1.3258 11.7581 1 11.4323 1 11.0305Z" fill="#B8B3FF" stroke="#B8B3FF" stroke-width="2"/>
</g>
</svg>
