<svg width="19" height="19" viewBox="0 0 19 19" fill="none" xmlns="http://www.w3.org/2000/svg">
<g id="Iconos">
<path id="Vector" d="M0 2.375C0 1.71816 0.530664 1.1875 1.1875 1.1875H17.8125C18.4693 1.1875 19 1.71816 19 2.375C19 3.03184 18.4693 3.5625 17.8125 3.5625V15.4375C18.4693 15.4375 19 15.9682 19 16.625C19 17.2818 18.4693 17.8125 17.8125 17.8125H1.1875C0.530664 17.8125 0 17.2818 0 16.625C0 15.9682 0.530664 15.4375 1.1875 15.4375V3.5625C0.530664 3.5625 0 3.03184 0 2.375ZM9.5 3.5625C9.17344 3.5625 8.90625 3.82969 8.90625 4.15625V5.34375H5.9375C5.61094 5.34375 5.34375 5.61094 5.34375 5.9375C5.34375 6.26406 5.61094 6.53125 5.9375 6.53125H8.90625V8.3125H4.75C4.42344 8.3125 4.15625 8.57969 4.15625 8.90625C4.15625 9.23281 4.42344 9.5 4.75 9.5H8.90625V12.1199L7.01738 11.3926C6.82441 11.3184 6.62402 11.2812 6.41621 11.2812H6.33828C5.4625 11.2812 4.75 11.9937 4.75 12.8695C4.75 13.2258 4.86875 13.5709 5.0877 13.8492L5.76309 14.7102C6.12305 15.1703 6.67598 15.4375 7.25859 15.4375H11.7414C12.324 15.4375 12.877 15.1703 13.2369 14.7102L13.9123 13.8492C14.1312 13.5709 14.25 13.2258 14.25 12.8695C14.25 11.9937 13.5375 11.2812 12.6617 11.2812H12.5801C12.376 11.2812 12.1719 11.3184 11.9789 11.3926L10.0938 12.1199V9.5H14.25C14.5766 9.5 14.8438 9.23281 14.8438 8.90625C14.8438 8.57969 14.5766 8.3125 14.25 8.3125H10.0938V6.53125H13.0625C13.3891 6.53125 13.6562 6.26406 13.6562 5.9375C13.6562 5.61094 13.3891 5.34375 13.0625 5.34375H10.0938V4.15625C10.0938 3.82969 9.82656 3.5625 9.5 3.5625ZM7.71875 13.0625C7.87622 13.0625 8.02724 13.1251 8.13859 13.2364C8.24994 13.3478 8.3125 13.4988 8.3125 13.6562C8.3125 13.8137 8.24994 13.9647 8.13859 14.0761C8.02724 14.1874 7.87622 14.25 7.71875 14.25C7.56128 14.25 7.41025 14.1874 7.29891 14.0761C7.18756 13.9647 7.125 13.8137 7.125 13.6562C7.125 13.4988 7.18756 13.3478 7.29891 13.2364C7.41025 13.1251 7.56128 13.0625 7.71875 13.0625ZM10.6875 13.6562C10.6875 13.4988 10.7501 13.3478 10.8614 13.2364C10.9728 13.1251 11.1238 13.0625 11.2812 13.0625C11.4387 13.0625 11.5897 13.1251 11.7011 13.2364C11.8124 13.3478 11.875 13.4988 11.875 13.6562C11.875 13.8137 11.8124 13.9647 11.7011 14.0761C11.5897 14.1874 11.4387 14.25 11.2812 14.25C11.1238 14.25 10.9728 14.1874 10.8614 14.0761C10.7501 13.9647 10.6875 13.8137 10.6875 13.6562Z" fill="#968AF6"/>
</g>
</svg>
