<svg width="19" height="19" viewBox="0 0 19 19" fill="none" xmlns="http://www.w3.org/2000/svg">
<g id="Iconos" clip-path="url(#clip0_66_10848)">
<path id="Vector" d="M5.65476 1.1875C5.65476 0.530664 6.16016 0 6.78571 0H7.91667C8.54222 0 9.04762 0.530664 9.04762 1.1875C9.67318 1.1875 10.1786 1.71816 10.1786 2.375V10.6875C10.1786 11.3443 9.67318 11.875 9.04762 11.875C9.04762 12.5318 8.54222 13.0625 7.91667 13.0625H6.78571C6.16016 13.0625 5.65476 12.5318 5.65476 11.875C5.0292 11.875 4.52381 11.3443 4.52381 10.6875V2.375C4.52381 1.71816 5.0292 1.1875 5.65476 1.1875ZM1.13095 16.625H11.3095C13.8082 16.625 15.8333 14.4986 15.8333 11.875C15.8333 9.25137 13.8082 7.125 11.3095 7.125V4.75C15.0558 4.75 18.0952 7.94141 18.0952 11.875C18.0952 13.7008 17.4414 15.3633 16.367 16.625H16.9643C17.5898 16.625 18.0952 17.1557 18.0952 17.8125C18.0952 18.4693 17.5898 19 16.9643 19H11.3095H1.13095C0.505394 19 0 18.4693 0 17.8125C0 17.1557 0.505394 16.625 1.13095 16.625ZM3.95833 14.25H10.744C11.0551 14.25 11.3095 14.5172 11.3095 14.8438C11.3095 15.1703 11.0551 15.4375 10.744 15.4375H3.95833C3.64732 15.4375 3.39286 15.1703 3.39286 14.8438C3.39286 14.5172 3.64732 14.25 3.95833 14.25Z" fill="#968AF6"/>
</g>
<defs>
<clipPath id="clip0_66_10848">
<rect width="18.0952" height="19" fill="white"/>
</clipPath>
</defs>
</svg>
