<svg width="40" height="41" viewBox="0 0 40 41" fill="none" xmlns="http://www.w3.org/2000/svg">
<path d="M5.83374 16.2812C5.83374 11.5083 5.83374 9.12179 7.31651 7.63902C8.79928 6.15625 11.1858 6.15625 15.9587 6.15625H24.0421C28.815 6.15625 31.2015 6.15625 32.6843 7.63902C34.1671 9.12179 34.1671 11.5083 34.1671 16.2813V24.7188C34.1671 29.4917 34.1671 31.8782 32.6843 33.361C31.2015 34.8438 28.815 34.8438 24.0421 34.8438H15.9587C11.1858 34.8438 8.79928 34.8438 7.31651 33.361C5.83374 31.8782 5.83374 29.4917 5.83374 24.7187V16.2812Z" stroke="#4D3C9A" stroke-width="2.53125"/>
<path d="M27.4998 17.125C27.4998 21.4777 25.8331 18.8125 19.9998 18.8125C14.1664 18.8125 12.4998 21.4777 12.4998 17.125C12.4998 13.3971 16.3179 10.375 19.9998 10.375C23.6817 10.375 27.4998 13.3971 27.4998 17.125Z" stroke="#4D3C9A" stroke-width="2.53125"/>
<path d="M23.3335 12.0625L22.5002 12.9062M26.6668 17.125H25.8335M16.6668 12.0625L17.5002 12.9062M13.3335 17.125H14.1668" stroke="#4D3C9A" stroke-width="2.53125" stroke-linecap="round"/>
<path d="M20.0005 14.5938V18.8125" stroke="#4D3C9A" stroke-width="2.53125" stroke-linecap="round"/>
<path d="M30.8333 28.0938C30.8333 30.625 29.9999 31.4688 28.3333 31.4688" stroke="#4D3C9A" stroke-width="2.53125" stroke-linecap="round"/>
</svg>
