<svg width="32" height="29" viewBox="0 0 32 29" fill="none" xmlns="http://www.w3.org/2000/svg">
<path d="M29.3414 13.843C29.7782 12.5306 30.0137 11.2147 30.0137 9.93851C30.0137 5.60875 26.5243 2.10571 22.2221 2.10571C19.6856 2.10571 17.4154 3.33878 16 5.24444C14.5846 3.33878 12.3284 2.10571 9.77795 2.10571C5.47574 2.10571 1.98633 5.60875 1.98633 9.93851C1.98633 11.5492 2.25476 13.1021 2.74982 14.5765M29.3414 13.843C27.5323 19.2787 22.2713 24.6539 16 26.8941C9.8309 24.6904 4.63945 20.2044 2.74982 14.5765M29.3414 13.843H25.5037C25.4005 13.843 25.3015 13.8043 25.2285 13.7355L23.3888 12.0021C23.2009 11.825 22.8842 11.8735 22.7653 12.0974L20.9128 15.5885C20.794 15.8124 20.4772 15.8609 20.2894 15.6838L18.6606 14.1491C18.4905 13.9889 18.2084 14.0108 18.0686 14.1953L14.9448 18.3159C14.7499 18.573 14.3242 18.4931 14.2488 18.1852L12.3351 10.3713C12.2549 10.044 11.7886 9.98201 11.6155 10.2757L8.50617 15.5492C8.3692 15.7815 8.02369 15.8038 7.85447 15.5912L6.14832 13.4477C6.00619 13.2691 5.72916 13.2506 5.56165 13.4084L4.43596 14.4691C4.36296 14.5379 4.26395 14.5765 4.1607 14.5765H3.46279H2.74982" stroke="#4D3C9A" stroke-width="2.53125" stroke-linecap="round" stroke-linejoin="round"/>
</svg>
