<svg width="30" height="26" viewBox="0 0 30 26" fill="none" xmlns="http://www.w3.org/2000/svg">
<path d="M21.1983 25.9696V24.2896L25.5182 20.2096C25.8596 19.9003 26.1102 19.6229 26.2702 19.3776C26.4302 19.1323 26.5369 18.9083 26.5902 18.7056C26.6542 18.5029 26.6862 18.3163 26.6862 18.1456C26.6862 17.6976 26.5316 17.3563 26.2222 17.1216C25.9236 16.8763 25.4809 16.7536 24.8943 16.7536C24.4249 16.7536 23.9876 16.8443 23.5823 17.0256C23.1876 17.207 22.8516 17.4896 22.5743 17.8736L20.6863 16.6576C21.1129 16.0176 21.7103 15.511 22.4783 15.1376C23.2463 14.7643 24.1316 14.5776 25.1343 14.5776C25.9662 14.5776 26.6916 14.7163 27.3102 14.9936C27.9396 15.2603 28.4249 15.639 28.7662 16.1296C29.1182 16.6203 29.2942 17.207 29.2942 17.8896C29.2942 18.2523 29.2462 18.6149 29.1502 18.9776C29.0649 19.3296 28.8836 19.7029 28.6062 20.0976C28.3396 20.4923 27.9449 20.9349 27.4222 21.4256L23.8383 24.8016L23.3423 23.8576H29.6622V25.9696H21.1983Z" fill="#4D3C9A"/>
<rect x="2.02515" y="7.65869" width="14.6227" height="14.6227" rx="7.31137" stroke="#4D3C9A" stroke-width="3.375"/>
<rect x="18.3357" y="0.0302734" width="8.28809" height="8.28809" rx="4.14405" fill="#4D3C9A"/>
</svg>
