<svg width="51" height="51" viewBox="0 0 51 51" fill="none" xmlns="http://www.w3.org/2000/svg">
<g id="iconos de estado" clip-path="url(#clip0_273_66)">
<path id="Vector" d="M22 30L16.5625 24.5625C16.1042 24.1042 15.5417 23.875 14.875 23.875C14.2083 23.875 13.625 24.125 13.125 24.625C12.6667 25.0833 12.4375 25.6667 12.4375 26.375C12.4375 27.0833 12.6667 27.6667 13.125 28.125L20.25 35.25C20.7083 35.7083 21.2917 35.9375 22 35.9375C22.7083 35.9375 23.2917 35.7083 23.75 35.25L37.9375 21.0625C38.3958 20.6042 38.625 20.0417 38.625 19.375C38.625 18.7083 38.375 18.125 37.875 17.625C37.4167 17.1667 36.8333 16.9375 36.125 16.9375C35.4167 16.9375 34.8333 17.1667 34.375 17.625L22 30ZM25.5 50.5C22.0417 50.5 18.7917 49.8433 15.75 48.53C12.7083 47.2183 10.0625 45.4375 7.8125 43.1875C5.5625 40.9375 3.78167 38.2917 2.47 35.25C1.15667 32.2083 0.5 28.9583 0.5 25.5C0.5 22.0417 1.15667 18.7917 2.47 15.75C3.78167 12.7083 5.5625 10.0625 7.8125 7.8125C10.0625 5.5625 12.7083 3.78083 15.75 2.4675C18.7917 1.15583 22.0417 0.5 25.5 0.5C28.9583 0.5 32.2083 1.15583 35.25 2.4675C38.2917 3.78083 40.9375 5.5625 43.1875 7.8125C45.4375 10.0625 47.2183 12.7083 48.53 15.75C49.8433 18.7917 50.5 22.0417 50.5 25.5C50.5 28.9583 49.8433 32.2083 48.53 35.25C47.2183 38.2917 45.4375 40.9375 43.1875 43.1875C40.9375 45.4375 38.2917 47.2183 35.25 48.53C32.2083 49.8433 28.9583 50.5 25.5 50.5Z" fill="#57A577"/>
</g>
<defs>
<clipPath id="clip0_273_66">
<rect width="50" height="50" fill="white" transform="translate(0.5 0.5)"/>
</clipPath>
</defs>
</svg>
