<svg width="28" height="40" viewBox="0 0 28 40" fill="none" xmlns="http://www.w3.org/2000/svg">
<path d="M15.0265 1.84619C12.8854 1.84619 11.1496 3.54373 11.1496 5.63775V21.6907C8.27736 23.0867 6.30347 25.9854 6.30347 29.335C6.30347 34.0465 10.2089 37.866 15.0265 37.866C19.8441 37.866 23.7496 34.0465 23.7496 29.335C23.7496 25.9854 21.7757 23.0867 18.9034 21.6907V5.63775C18.9034 3.54373 17.1677 1.84619 15.0265 1.84619Z" stroke="#4D3C9A" stroke-width="2.53125"/>
<path d="M9.99072 32.1782C10.5017 33.0437 11.2369 33.7623 12.1222 34.2615C13.0076 34.7607 14.0118 35.023 15.0337 35.0218C16.0557 35.0207 17.0593 34.7561 17.9434 34.2549C18.8276 33.7537 19.5611 33.0334 20.07 32.1667C20.5789 31.3 20.8453 30.3174 20.8423 29.318C20.8394 28.3185 20.5671 27.3375 20.0531 26.4737C19.539 25.6099 18.8013 24.8938 17.9142 24.3976C17.0418 23.9096 16.0814 23.6512 15.0779 23.6471C15.0498 23.647 15.027 23.6244 15.027 23.5963V10.3767" stroke="#4D3C9A" stroke-width="2.53125" stroke-linecap="round"/>
<path d="M10.1789 6.58521H8.24048" stroke="#4D3C9A" stroke-width="2.53125" stroke-linecap="round"/>
<path d="M10.1797 10.3762H8.24121" stroke="#4D3C9A" stroke-width="2.53125" stroke-linecap="round"/>
<path d="M10.1797 14.1677H8.24121" stroke="#4D3C9A" stroke-width="2.53125" stroke-linecap="round"/>
<path d="M10.1797 17.9595H8.24121" stroke="#4D3C9A" stroke-width="2.53125" stroke-linecap="round"/>
</svg>
